<?xml version="1.0" encoding="UTF-8" standalone="no"?>
<!DOCTYPE svg PUBLIC "-//W3C//DTD SVG 1.1//EN"
 "http://www.w3.org/Graphics/SVG/1.1/DTD/svg11.dtd">
<!-- Generated by graphviz version 2.48.0 (0)
 -->
<!-- Title: ER Pages: 1 -->
<svg width="1569pt" height="1193pt"
 viewBox="0.00 0.00 1569.06 1192.88" xmlns="http://www.w3.org/2000/svg" xmlns:xlink="http://www.w3.org/1999/xlink">
<g id="graph0" class="graph" transform="scale(1 1) rotate(0) translate(18 1174.88)">
<title>ER</title>
<polygon fill="white" stroke="transparent" points="-18,18 -18,-1174.88 1551.06,-1174.88 1551.06,18 -18,18"/>
<!-- cinema -->
<g id="node1" class="node">
<title>cinema</title>
<polygon fill="#ffe6cc" stroke="orange" points="335.82,-240.78 227.82,-240.78 227.82,-168.78 335.82,-168.78 335.82,-240.78"/>
<text text-anchor="middle" x="281.82" y="-198.58" font-family="Times,serif" font-size="24.00">cinema</text>
</g>
<!-- screen_ibfk_1 -->
<g id="node9" class="node">
<title>screen_ibfk_1</title>
<polygon fill="#e4fccc" stroke="#76ee00" points="408.87,-375.65 350.22,-357.65 408.87,-339.65 467.52,-357.65 408.87,-375.65"/>
<text text-anchor="middle" x="408.87" y="-353.95" font-family="Times,serif" font-size="14.00">Knows</text>
</g>
<!-- cinema&#45;&#45;screen_ibfk_1 -->
<g id="edge8" class="edge">
<title>cinema&#45;&#45;screen_ibfk_1</title>
<path fill="none" stroke="black" d="M311.93,-241.01C339.08,-273.68 377.61,-320.05 396.9,-343.25"/>
</g>
<!-- cinema.cinemaId -->
<g id="node10" class="node">
<title>cinema.cinemaId</title>
<ellipse fill="#efe6ff" stroke="#ab82ff" cx="342.9" cy="-18" rx="53.09" ry="18"/>
<text text-anchor="middle" x="342.9" y="-14.3" font-family="Times,serif" font-size="14.00">cinemaId</text>
</g>
<!-- cinema&#45;&#45;cinema.cinemaId -->
<g id="edge9" class="edge">
<title>cinema&#45;&#45;cinema.cinemaId</title>
<path fill="none" stroke="black" d="M293.6,-168.76C306.56,-129.12 326.9,-66.95 336.92,-36.31"/>
</g>
<!-- cinema.cinemaName -->
<g id="node11" class="node">
<title>cinema.cinemaName</title>
<ellipse fill="#efe6ff" stroke="#ab82ff" cx="171.64" cy="-61.07" rx="71.49" ry="18"/>
<text text-anchor="middle" x="171.64" y="-57.37" font-family="Times,serif" font-size="14.00">cinemaName</text>
</g>
<!-- cinema&#45;&#45;cinema.cinemaName -->
<g id="edge10" class="edge">
<title>cinema&#45;&#45;cinema.cinemaName</title>
<path fill="none" stroke="black" d="M254.02,-168.51C232.09,-139.91 202.44,-101.24 185.35,-78.95"/>
</g>
<!-- cinema.mailingAddress -->
<g id="node12" class="node">
<title>cinema.mailingAddress</title>
<ellipse fill="#efe6ff" stroke="#ab82ff" cx="83.19" cy="-211.6" rx="83.39" ry="18"/>
<text text-anchor="middle" x="83.19" y="-207.9" font-family="Times,serif" font-size="14.00">mailingAddress</text>
</g>
<!-- cinema&#45;&#45;cinema.mailingAddress -->
<g id="edge11" class="edge">
<title>cinema&#45;&#45;cinema.mailingAddress</title>
<path fill="none" stroke="black" d="M227.81,-206.63C208.62,-207.29 186.57,-208.05 165.56,-208.77"/>
</g>
<!-- movie -->
<g id="node2" class="node">
<title>movie</title>
<polygon fill="#ffe6cc" stroke="orange" points="1385.18,-475.87 1277.18,-475.87 1277.18,-403.87 1385.18,-403.87 1385.18,-475.87"/>
<text text-anchor="middle" x="1331.18" y="-433.67" font-family="Times,serif" font-size="24.00">movie</text>
</g>
<!-- moviesShown_ibfk_1 -->
<g id="node6" class="node">
<title>moviesShown_ibfk_1</title>
<polygon fill="#e4fccc" stroke="#76ee00" points="1137.3,-469.6 1078.64,-451.6 1137.3,-433.6 1195.95,-451.6 1137.3,-469.6"/>
<text text-anchor="middle" x="1137.3" y="-447.9" font-family="Times,serif" font-size="14.00">Knows</text>
</g>
<!-- movie&#45;&#45;moviesShown_ibfk_1 -->
<g id="edge2" class="edge">
<title>movie&#45;&#45;moviesShown_ibfk_1</title>
<path fill="none" stroke="black" d="M1277.18,-443.14C1248.72,-444.86 1214.07,-446.96 1186.38,-448.63"/>
</g>
<!-- movie.movieId -->
<g id="node13" class="node">
<title>movie.movieId</title>
<ellipse fill="#efe6ff" stroke="#ab82ff" cx="1484.78" cy="-338.11" rx="48.19" ry="18"/>
<text text-anchor="middle" x="1484.78" y="-334.41" font-family="Times,serif" font-size="14.00">movieId</text>
</g>
<!-- movie&#45;&#45;movie.movieId -->
<g id="edge12" class="edge">
<title>movie&#45;&#45;movie.movieId</title>
<path fill="none" stroke="black" d="M1385.34,-403.99C1411.25,-386.83 1440.93,-367.16 1461.08,-353.81"/>
</g>
<!-- movie.title -->
<g id="node14" class="node">
<title>movie.title</title>
<ellipse fill="#efe6ff" stroke="#ab82ff" cx="1503.17" cy="-512.74" rx="29.8" ry="18"/>
<text text-anchor="middle" x="1503.17" y="-509.04" font-family="Times,serif" font-size="14.00">title</text>
</g>
<!-- movie&#45;&#45;movie.title -->
<g id="edge13" class="edge">
<title>movie&#45;&#45;movie.title</title>
<path fill="none" stroke="black" d="M1385.6,-462.93C1416.7,-476.1 1454.19,-491.99 1478.34,-502.22"/>
</g>
<!-- movie.releaseYear -->
<g id="node15" class="node">
<title>movie.releaseYear</title>
<ellipse fill="#efe6ff" stroke="#ab82ff" cx="1412.29" cy="-626.17" rx="64.99" ry="18"/>
<text text-anchor="middle" x="1412.29" y="-622.47" font-family="Times,serif" font-size="14.00">releaseYear</text>
</g>
<!-- movie&#45;&#45;movie.releaseYear -->
<g id="edge14" class="edge">
<title>movie&#45;&#45;movie.releaseYear</title>
<path fill="none" stroke="black" d="M1347.02,-476.23C1364.26,-515.84 1391.14,-577.59 1404.38,-608"/>
</g>
<!-- movie.rating -->
<g id="node16" class="node">
<title>movie.rating</title>
<ellipse fill="#efe6ff" stroke="#ab82ff" cx="1368.97" cy="-239.94" rx="38.99" ry="18"/>
<text text-anchor="middle" x="1368.97" y="-236.24" font-family="Times,serif" font-size="14.00">rating</text>
</g>
<!-- movie&#45;&#45;movie.rating -->
<g id="edge15" class="edge">
<title>movie&#45;&#45;movie.rating</title>
<path fill="none" stroke="black" d="M1338.03,-403.67C1346.15,-360.68 1359.38,-290.7 1365.57,-257.94"/>
</g>
<!-- moviesShown -->
<g id="node3" class="node">
<title>moviesShown</title>
<polygon fill="#ffe6cc" stroke="orange" points="1036.54,-508.18 853.54,-508.18 853.54,-436.18 1036.54,-436.18 1036.54,-508.18"/>
<text text-anchor="middle" x="945.04" y="-465.98" font-family="Times,serif" font-size="24.00">moviesShown</text>
</g>
<!-- moviesShown&#45;&#45;moviesShown_ibfk_1 -->
<g id="edge1" class="edge">
<title>moviesShown&#45;&#45;moviesShown_ibfk_1</title>
<path fill="none" stroke="black" d="M1036.66,-462.37C1056.59,-460.24 1076.77,-458.08 1093.78,-456.26"/>
</g>
<!-- moviesShown_ibfk_2 -->
<g id="node7" class="node">
<title>moviesShown_ibfk_2</title>
<polygon fill="#e4fccc" stroke="#76ee00" points="747.54,-520.43 688.89,-502.43 747.54,-484.43 806.2,-502.43 747.54,-520.43"/>
<text text-anchor="middle" x="747.54" y="-498.73" font-family="Times,serif" font-size="14.00">Knows</text>
</g>
<!-- moviesShown&#45;&#45;moviesShown_ibfk_2 -->
<g id="edge3" class="edge">
<title>moviesShown&#45;&#45;moviesShown_ibfk_2</title>
<path fill="none" stroke="black" d="M853.52,-486.2C830.11,-489.78 806.16,-493.45 786.96,-496.39"/>
</g>
<!-- moviesShown.movieId -->
<g id="node17" class="node">
<title>moviesShown.movieId</title>
<ellipse fill="#efe6ff" stroke="#ab82ff" cx="959.39" cy="-276.06" rx="48.19" ry="18"/>
<text text-anchor="middle" x="959.39" y="-272.36" font-family="Times,serif" font-size="14.00">movieId</text>
</g>
<!-- moviesShown&#45;&#45;moviesShown.movieId -->
<g id="edge16" class="edge">
<title>moviesShown&#45;&#45;moviesShown.movieId</title>
<path fill="none" stroke="black" d="M947.7,-435.75C950.78,-393.77 955.7,-326.44 958.05,-294.29"/>
</g>
<!-- moviesShown.screenId -->
<g id="node18" class="node">
<title>moviesShown.screenId</title>
<ellipse fill="#efe6ff" stroke="#ab82ff" cx="1023.89" cy="-648.79" rx="50.89" ry="18"/>
<text text-anchor="middle" x="1023.89" y="-645.09" font-family="Times,serif" font-size="14.00">screenId</text>
</g>
<!-- moviesShown&#45;&#45;moviesShown.screenId -->
<g id="edge17" class="edge">
<title>moviesShown&#45;&#45;moviesShown.screenId</title>
<path fill="none" stroke="black" d="M961.19,-508.34C977.86,-545.68 1003.18,-602.4 1015.94,-630.99"/>
</g>
<!-- projector -->
<g id="node4" class="node">
<title>projector</title>
<polygon fill="#ffe6cc" stroke="orange" points="401.39,-987.48 273.39,-987.48 273.39,-915.48 401.39,-915.48 401.39,-987.48"/>
<text text-anchor="middle" x="337.39" y="-945.28" font-family="Times,serif" font-size="24.00">projector</text>
</g>
<!-- projector_ibfk_1 -->
<g id="node8" class="node">
<title>projector_ibfk_1</title>
<polygon fill="#e4fccc" stroke="#76ee00" points="430.29,-782.66 371.63,-764.66 430.29,-746.66 488.94,-764.66 430.29,-782.66"/>
<text text-anchor="middle" x="430.29" y="-760.96" font-family="Times,serif" font-size="14.00">Knows</text>
</g>
<!-- projector&#45;&#45;projector_ibfk_1 -->
<g id="edge5" class="edge">
<title>projector&#45;&#45;projector_ibfk_1</title>
<path fill="none" stroke="black" d="M355.3,-915.46C375.55,-874.75 407.6,-810.28 422.37,-780.59"/>
</g>
<!-- projector.serialNo -->
<g id="node19" class="node">
<title>projector.serialNo</title>
<ellipse fill="#efe6ff" stroke="#ab82ff" cx="198.01" cy="-1078.63" rx="50.09" ry="18"/>
<text text-anchor="middle" x="198.01" y="-1074.93" font-family="Times,serif" font-size="14.00">serialNo</text>
</g>
<!-- projector&#45;&#45;projector.serialNo -->
<g id="edge18" class="edge">
<title>projector&#45;&#45;projector.serialNo</title>
<path fill="none" stroke="black" d="M297.82,-987.58C271.1,-1011.95 237.06,-1043 216.43,-1061.82"/>
</g>
<!-- projector.screenId -->
<g id="node20" class="node">
<title>projector.screenId</title>
<ellipse fill="#efe6ff" stroke="#ab82ff" cx="307.62" cy="-1138.88" rx="50.89" ry="18"/>
<text text-anchor="middle" x="307.62" y="-1135.18" font-family="Times,serif" font-size="14.00">screenId</text>
</g>
<!-- projector&#45;&#45;projector.screenId -->
<g id="edge19" class="edge">
<title>projector&#45;&#45;projector.screenId</title>
<path fill="none" stroke="black" d="M331.65,-987.62C325.33,-1027.39 315.42,-1089.77 310.54,-1120.51"/>
</g>
<!-- projector.projectorType -->
<g id="node21" class="node">
<title>projector.projectorType</title>
<ellipse fill="#efe6ff" stroke="#ab82ff" cx="159.76" cy="-872.88" rx="75.29" ry="18"/>
<text text-anchor="middle" x="159.76" y="-869.18" font-family="Times,serif" font-size="14.00">projectorType</text>
</g>
<!-- projector&#45;&#45;projector.projectorType -->
<g id="edge20" class="edge">
<title>projector&#45;&#45;projector.projectorType</title>
<path fill="none" stroke="black" d="M273.26,-923.11C247.13,-911.54 217.89,-898.6 195.64,-888.76"/>
</g>
<!-- projector.modelNumber -->
<g id="node22" class="node">
<title>projector.modelNumber</title>
<ellipse fill="#efe6ff" stroke="#ab82ff" cx="134.29" cy="-975.4" rx="77.19" ry="18"/>
<text text-anchor="middle" x="134.29" y="-971.7" font-family="Times,serif" font-size="14.00">modelNumber</text>
</g>
<!-- projector&#45;&#45;projector.modelNumber -->
<g id="edge21" class="edge">
<title>projector&#45;&#45;projector.modelNumber</title>
<path fill="none" stroke="black" d="M273.13,-959.05C250.93,-961.67 225.97,-964.6 203.41,-967.26"/>
</g>
<!-- projector.resolution -->
<g id="node23" class="node">
<title>projector.resolution</title>
<ellipse fill="#efe6ff" stroke="#ab82ff" cx="500.6" cy="-1056.96" rx="57.69" ry="18"/>
<text text-anchor="middle" x="500.6" y="-1053.26" font-family="Times,serif" font-size="14.00">resolution</text>
</g>
<!-- projector&#45;&#45;projector.resolution -->
<g id="edge22" class="edge">
<title>projector&#45;&#45;projector.resolution</title>
<path fill="none" stroke="black" d="M393.1,-987.49C420.99,-1005.51 453.38,-1026.44 475.25,-1040.58"/>
</g>
<!-- projector.usedHours -->
<g id="node24" class="node">
<title>projector.usedHours</title>
<ellipse fill="#efe6ff" stroke="#ab82ff" cx="427.41" cy="-1134.1" rx="61.19" ry="18"/>
<text text-anchor="middle" x="427.41" y="-1130.4" font-family="Times,serif" font-size="14.00">usedHours</text>
</g>
<!-- projector&#45;&#45;projector.usedHours -->
<g id="edge23" class="edge">
<title>projector&#45;&#45;projector.usedHours</title>
<path fill="none" stroke="black" d="M355.17,-987.56C374.24,-1026.23 403.73,-1086.06 418.44,-1115.89"/>
</g>
<!-- screen -->
<g id="node5" class="node">
<title>screen</title>
<polygon fill="#ffe6cc" stroke="orange" points="583.3,-592.06 475.3,-592.06 475.3,-520.06 583.3,-520.06 583.3,-592.06"/>
<text text-anchor="middle" x="529.3" y="-549.86" font-family="Times,serif" font-size="24.00">screen</text>
</g>
<!-- screen&#45;&#45;moviesShown_ibfk_2 -->
<g id="edge4" class="edge">
<title>screen&#45;&#45;moviesShown_ibfk_2</title>
<path fill="none" stroke="black" d="M583.53,-542.74C624.81,-532.59 680.26,-518.96 714.95,-510.44"/>
</g>
<!-- screen&#45;&#45;projector_ibfk_1 -->
<g id="edge6" class="edge">
<title>screen&#45;&#45;projector_ibfk_1</title>
<path fill="none" stroke="black" d="M512.05,-592.4C490.22,-638.39 453.57,-715.61 437.84,-748.76"/>
</g>
<!-- screen&#45;&#45;screen_ibfk_1 -->
<g id="edge7" class="edge">
<title>screen&#45;&#45;screen_ibfk_1</title>
<path fill="none" stroke="black" d="M507.21,-519.67C480.59,-475.82 437.09,-404.14 418.16,-372.96"/>
</g>
<!-- screen.screenId -->
<g id="node25" class="node">
<title>screen.screenId</title>
<ellipse fill="#efe6ff" stroke="#ab82ff" cx="596.89" cy="-704.21" rx="50.89" ry="18"/>
<text text-anchor="middle" x="596.89" y="-700.51" font-family="Times,serif" font-size="14.00">screenId</text>
</g>
<!-- screen&#45;&#45;screen.screenId -->
<g id="edge24" class="edge">
<title>screen&#45;&#45;screen.screenId</title>
<path fill="none" stroke="black" d="M545.83,-592.31C559.43,-622.12 578.13,-663.1 588.72,-686.3"/>
</g>
<!-- screen.cinemaId -->
<g id="node26" class="node">
<title>screen.cinemaId</title>
<ellipse fill="#efe6ff" stroke="#ab82ff" cx="578.98" cy="-401.3" rx="53.09" ry="18"/>
<text text-anchor="middle" x="578.98" y="-397.6" font-family="Times,serif" font-size="14.00">cinemaId</text>
</g>
<!-- screen&#45;&#45;screen.cinemaId -->
<g id="edge25" class="edge">
<title>screen&#45;&#45;screen.cinemaId</title>
<path fill="none" stroke="black" d="M540.95,-519.78C551.04,-488.33 565.23,-444.13 573.11,-419.57"/>
</g>
<!-- screen.size -->
<g id="node27" class="node">
<title>screen.size</title>
<ellipse fill="#efe6ff" stroke="#ab82ff" cx="658.06" cy="-628.72" rx="28.7" ry="18"/>
<text text-anchor="middle" x="658.06" y="-625.02" font-family="Times,serif" font-size="14.00">size</text>
</g>
<!-- screen&#45;&#45;screen.size -->
<g id="edge26" class="edge">
<title>screen&#45;&#45;screen.size</title>
<path fill="none" stroke="black" d="M583.53,-586.67C602.23,-597.21 622.09,-608.42 636.61,-616.61"/>
</g>
<!-- screen.capacity -->
<g id="node28" class="node">
<title>screen.capacity</title>
<ellipse fill="#efe6ff" stroke="#ab82ff" cx="366.7" cy="-581.27" rx="49.29" ry="18"/>
<text text-anchor="middle" x="366.7" y="-577.57" font-family="Times,serif" font-size="14.00">capacity</text>
</g>
<!-- screen&#45;&#45;screen.capacity -->
<g id="edge27" class="edge">
<title>screen&#45;&#45;screen.capacity</title>
<path fill="none" stroke="black" d="M475.16,-564.46C454.74,-567.62 431.74,-571.19 412.2,-574.22"/>
</g>
<!-- screen.goldclass -->
<g id="node29" class="node">
<title>screen.goldclass</title>
<ellipse fill="#efe6ff" stroke="#ab82ff" cx="404.82" cy="-483.46" rx="53.89" ry="18"/>
<text text-anchor="middle" x="404.82" y="-479.76" font-family="Times,serif" font-size="14.00">goldclass</text>
</g>
<!-- screen&#45;&#45;screen.goldclass -->
<g id="edge28" class="edge">
<title>screen&#45;&#45;screen.goldclass</title>
<path fill="none" stroke="black" d="M475.06,-524.43C460.13,-515.72 444.56,-506.64 431.89,-499.25"/>
</g>
</g>
</svg>
