<?xml version="1.0" encoding="UTF-8" standalone="no"?>
<!DOCTYPE svg PUBLIC "-//W3C//DTD SVG 1.1//EN"
 "http://www.w3.org/Graphics/SVG/1.1/DTD/svg11.dtd">
<!-- Generated by graphviz version 2.48.0 (0)
 -->
<!-- Title: ER Pages: 1 -->
<svg width="2991pt" height="2341pt"
 viewBox="0.00 0.00 2990.96 2341.24" xmlns="http://www.w3.org/2000/svg" xmlns:xlink="http://www.w3.org/1999/xlink">
<g id="graph0" class="graph" transform="scale(1 1) rotate(0) translate(18 2323.24)">
<title>ER</title>
<polygon fill="white" stroke="transparent" points="-18,18 -18,-2323.24 2972.96,-2323.24 2972.96,18 -18,18"/>
<!-- allergy -->
<g id="node1" class="node">
<title>allergy</title>
<polygon fill="#ffe6cc" stroke="orange" points="832.48,-1560.74 724.48,-1560.74 724.48,-1488.74 832.48,-1488.74 832.48,-1560.74"/>
<text text-anchor="middle" x="778.48" y="-1518.54" font-family="Times,serif" font-size="24.00">allergy</text>
</g>
<!-- allergy_ibfk_1 -->
<g id="node10" class="node">
<title>allergy_ibfk_1</title>
<polygon fill="#e4fccc" stroke="#76ee00" points="928.28,-1291.72 869.63,-1273.72 928.28,-1255.72 986.94,-1273.72 928.28,-1291.72"/>
<text text-anchor="middle" x="928.28" y="-1270.02" font-family="Times,serif" font-size="14.00">Knows</text>
</g>
<!-- allergy&#45;&#45;allergy_ibfk_1 -->
<g id="edge1" class="edge">
<title>allergy&#45;&#45;allergy_ibfk_1</title>
<path fill="none" stroke="black" d="M800.1,-1488.51C833.4,-1432.71 895.84,-1328.09 919.17,-1288.99"/>
</g>
<!-- reaction_ibfk_1 -->
<g id="node16" class="node">
<title>reaction_ibfk_1</title>
<polygon fill="#e4fccc" stroke="#76ee00" points="564.23,-1781.96 505.58,-1763.96 564.23,-1745.96 622.89,-1763.96 564.23,-1781.96"/>
<text text-anchor="middle" x="564.23" y="-1760.26" font-family="Times,serif" font-size="14.00">Knows</text>
</g>
<!-- allergy&#45;&#45;reaction_ibfk_1 -->
<g id="edge14" class="edge">
<title>allergy&#45;&#45;reaction_ibfk_1</title>
<path fill="none" stroke="black" d="M746.17,-1560.81C698.13,-1614.46 609.98,-1712.89 577.07,-1749.63"/>
</g>
<!-- allergy.allergyName -->
<g id="node18" class="node">
<title>allergy.allergyName</title>
<ellipse fill="#efe6ff" stroke="#ab82ff" cx="982.21" cy="-1710.41" rx="70.39" ry="18"/>
<text text-anchor="middle" x="982.21" y="-1706.71" font-family="Times,serif" font-size="14.00">allergyName</text>
</g>
<!-- allergy&#45;&#45;allergy.allergyName -->
<g id="edge17" class="edge">
<title>allergy&#45;&#45;allergy.allergyName</title>
<path fill="none" stroke="black" d="M818.24,-1560.98C861.9,-1600.77 930.16,-1662.98 963.13,-1693.02"/>
</g>
<!-- allergy.medication -->
<g id="node19" class="node">
<title>allergy.medication</title>
<ellipse fill="#efe6ff" stroke="#ab82ff" cx="782.34" cy="-1697.1" rx="61.99" ry="18"/>
<text text-anchor="middle" x="782.34" y="-1693.4" font-family="Times,serif" font-size="14.00">medication</text>
</g>
<!-- allergy&#45;&#45;allergy.medication -->
<g id="edge18" class="edge">
<title>allergy&#45;&#45;allergy.medication</title>
<path fill="none" stroke="black" d="M779.29,-1560.87C780.1,-1597 781.31,-1651.09 781.94,-1679"/>
</g>
<!-- allergy.dosageTypical -->
<g id="node20" class="node">
<title>allergy.dosageTypical</title>
<ellipse fill="#efe6ff" stroke="#ab82ff" cx="901.54" cy="-1771.02" rx="76.89" ry="18"/>
<text text-anchor="middle" x="901.54" y="-1767.32" font-family="Times,serif" font-size="14.00">dosageTypical</text>
</g>
<!-- allergy&#45;&#45;allergy.dosageTypical -->
<g id="edge19" class="edge">
<title>allergy&#45;&#45;allergy.dosageTypical</title>
<path fill="none" stroke="black" d="M796.51,-1560.82C823.21,-1614.26 872.3,-1712.49 892.5,-1752.91"/>
</g>
<!-- allergy.medicareNo -->
<g id="node21" class="node">
<title>allergy.medicareNo</title>
<ellipse fill="#efe6ff" stroke="#ab82ff" cx="578.2" cy="-1505.87" rx="66.89" ry="18"/>
<text text-anchor="middle" x="578.2" y="-1502.17" font-family="Times,serif" font-size="14.00">medicareNo</text>
</g>
<!-- allergy&#45;&#45;allergy.medicareNo -->
<g id="edge20" class="edge">
<title>allergy&#45;&#45;allergy.medicareNo</title>
<path fill="none" stroke="black" d="M724.28,-1519.63C698.8,-1517.23 668.24,-1514.35 641.68,-1511.85"/>
</g>
<!-- allergy.positionNo -->
<g id="node22" class="node">
<title>allergy.positionNo</title>
<ellipse fill="#efe6ff" stroke="#ab82ff" cx="515.03" cy="-1421.83" rx="61.19" ry="18"/>
<text text-anchor="middle" x="515.03" y="-1418.13" font-family="Times,serif" font-size="14.00">positionNo</text>
</g>
<!-- allergy&#45;&#45;allergy.positionNo -->
<g id="edge21" class="edge">
<title>allergy&#45;&#45;allergy.positionNo</title>
<path fill="none" stroke="black" d="M724.21,-1503.54C672.7,-1483.42 596.67,-1453.72 551.86,-1436.22"/>
</g>
<!-- doctor -->
<g id="node2" class="node">
<title>doctor</title>
<polygon fill="#ffe6cc" stroke="orange" points="2205.21,-1624.08 2097.21,-1624.08 2097.21,-1552.08 2205.21,-1552.08 2205.21,-1624.08"/>
<text text-anchor="middle" x="2151.21" y="-1581.88" font-family="Times,serif" font-size="24.00">doctor</text>
</g>
<!-- jab_ibfk_3 -->
<g id="node13" class="node">
<title>jab_ibfk_3</title>
<polygon fill="#e4fccc" stroke="#76ee00" points="1950.85,-1376.91 1892.2,-1358.91 1950.85,-1340.91 2009.5,-1358.91 1950.85,-1376.91"/>
<text text-anchor="middle" x="1950.85" y="-1355.21" font-family="Times,serif" font-size="14.00">Knows</text>
</g>
<!-- doctor&#45;&#45;jab_ibfk_3 -->
<g id="edge8" class="edge">
<title>doctor&#45;&#45;jab_ibfk_3</title>
<path fill="none" stroke="black" d="M2119.68,-1552.02C2074.72,-1500.59 1994.21,-1408.5 1963.35,-1373.21"/>
</g>
<!-- doctor.MPN -->
<g id="node23" class="node">
<title>doctor.MPN</title>
<ellipse fill="#efe6ff" stroke="#ab82ff" cx="2334.28" cy="-1763.05" rx="34.39" ry="18"/>
<text text-anchor="middle" x="2334.28" y="-1759.35" font-family="Times,serif" font-size="14.00">MPN</text>
</g>
<!-- doctor&#45;&#45;doctor.MPN -->
<g id="edge22" class="edge">
<title>doctor&#45;&#45;doctor.MPN</title>
<path fill="none" stroke="black" d="M2189.14,-1624.33C2228.52,-1661.97 2288.33,-1719.14 2317.33,-1746.85"/>
</g>
<!-- doctor.title -->
<g id="node24" class="node">
<title>doctor.title</title>
<ellipse fill="#efe6ff" stroke="#ab82ff" cx="2256.31" cy="-1849.85" rx="29.8" ry="18"/>
<text text-anchor="middle" x="2256.31" y="-1846.15" font-family="Times,serif" font-size="14.00">title</text>
</g>
<!-- doctor&#45;&#45;doctor.title -->
<g id="edge23" class="edge">
<title>doctor&#45;&#45;doctor.title</title>
<path fill="none" stroke="black" d="M2165.71,-1624.2C2188.57,-1681.15 2232.14,-1789.67 2249.21,-1832.16"/>
</g>
<!-- doctor.fName -->
<g id="node25" class="node">
<title>doctor.fName</title>
<ellipse fill="#efe6ff" stroke="#ab82ff" cx="2020.25" cy="-1862.64" rx="41.69" ry="18"/>
<text text-anchor="middle" x="2020.25" y="-1858.94" font-family="Times,serif" font-size="14.00">fName</text>
</g>
<!-- doctor&#45;&#45;doctor.fName -->
<g id="edge24" class="edge">
<title>doctor&#45;&#45;doctor.fName</title>
<path fill="none" stroke="black" d="M2134.05,-1624.35C2118.67,-1656.82 2095.48,-1705.71 2075.19,-1748.2 2058.86,-1782.41 2039.67,-1822.31 2028.84,-1844.81"/>
</g>
<!-- doctor.lName -->
<g id="node26" class="node">
<title>doctor.lName</title>
<ellipse fill="#efe6ff" stroke="#ab82ff" cx="2413.89" cy="-1426.97" rx="40.89" ry="18"/>
<text text-anchor="middle" x="2413.89" y="-1423.27" font-family="Times,serif" font-size="14.00">lName</text>
</g>
<!-- doctor&#45;&#45;doctor.lName -->
<g id="edge25" class="edge">
<title>doctor&#45;&#45;doctor.lName</title>
<path fill="none" stroke="black" d="M2205.46,-1559.24C2244.37,-1538.04 2297.7,-1507.95 2342.9,-1478.71 2360.44,-1467.36 2379.54,-1453.34 2393.5,-1442.76"/>
</g>
<!-- doctor.streetNo -->
<g id="node27" class="node">
<title>doctor.streetNo</title>
<ellipse fill="#efe6ff" stroke="#ab82ff" cx="2416.06" cy="-1678.55" rx="51.99" ry="18"/>
<text text-anchor="middle" x="2416.06" y="-1674.85" font-family="Times,serif" font-size="14.00">streetNo</text>
</g>
<!-- doctor&#45;&#45;doctor.streetNo -->
<g id="edge26" class="edge">
<title>doctor&#45;&#45;doctor.streetNo</title>
<path fill="none" stroke="black" d="M2205.45,-1606.6C2257.2,-1624.28 2333.79,-1650.44 2378.94,-1665.87"/>
</g>
<!-- doctor.streetName -->
<g id="node28" class="node">
<title>doctor.streetName</title>
<ellipse fill="#efe6ff" stroke="#ab82ff" cx="2007.95" cy="-1748.01" rx="65.79" ry="18"/>
<text text-anchor="middle" x="2007.95" y="-1744.31" font-family="Times,serif" font-size="14.00">streetName</text>
</g>
<!-- doctor&#45;&#45;doctor.streetName -->
<g id="edge27" class="edge">
<title>doctor&#45;&#45;doctor.streetName</title>
<path fill="none" stroke="black" d="M2118.7,-1624.37C2089.15,-1657.37 2046.78,-1704.67 2023.96,-1730.14"/>
</g>
<!-- doctor.postcode -->
<g id="node29" class="node">
<title>doctor.postcode</title>
<ellipse fill="#efe6ff" stroke="#ab82ff" cx="2305.21" cy="-1464.78" rx="51.99" ry="18"/>
<text text-anchor="middle" x="2305.21" y="-1461.08" font-family="Times,serif" font-size="14.00">postcode</text>
</g>
<!-- doctor&#45;&#45;doctor.postcode -->
<g id="edge28" class="edge">
<title>doctor&#45;&#45;doctor.postcode</title>
<path fill="none" stroke="black" d="M2196.58,-1551.75C2225.68,-1528.45 2262.08,-1499.31 2284.48,-1481.38"/>
</g>
<!-- doctor.email -->
<g id="node30" class="node">
<title>doctor.email</title>
<ellipse fill="#efe6ff" stroke="#ab82ff" cx="2445.97" cy="-1558.54" rx="36.29" ry="18"/>
<text text-anchor="middle" x="2445.97" y="-1554.84" font-family="Times,serif" font-size="14.00">email</text>
</g>
<!-- doctor&#45;&#45;doctor.email -->
<g id="edge29" class="edge">
<title>doctor&#45;&#45;doctor.email</title>
<path fill="none" stroke="black" d="M2205.27,-1582.66C2264.77,-1576.7 2358.75,-1567.28 2409.89,-1562.15"/>
</g>
<!-- doctor.phoneNo -->
<g id="node31" class="node">
<title>doctor.phoneNo</title>
<ellipse fill="#efe6ff" stroke="#ab82ff" cx="2141.27" cy="-1872.33" rx="51.99" ry="18"/>
<text text-anchor="middle" x="2141.27" y="-1868.63" font-family="Times,serif" font-size="14.00">phoneNo</text>
</g>
<!-- doctor&#45;&#45;doctor.phoneNo -->
<g id="edge30" class="edge">
<title>doctor&#45;&#45;doctor.phoneNo</title>
<path fill="none" stroke="black" d="M2149.95,-1624.08C2147.8,-1685.48 2143.51,-1808.27 2141.9,-1854.33"/>
</g>
<!-- emergencyContact -->
<g id="node3" class="node">
<title>emergencyContact</title>
<polygon fill="#ffe6cc" stroke="orange" points="660.75,-722.29 414.75,-722.29 414.75,-650.29 660.75,-650.29 660.75,-722.29"/>
<text text-anchor="middle" x="537.75" y="-680.09" font-family="Times,serif" font-size="24.00">emergencyContact</text>
</g>
<!-- patient_ibfk_2 -->
<g id="node15" class="node">
<title>patient_ibfk_2</title>
<polygon fill="#e4fccc" stroke="#76ee00" points="806.17,-852.17 747.52,-834.17 806.17,-816.17 864.83,-834.17 806.17,-852.17"/>
<text text-anchor="middle" x="806.17" y="-830.47" font-family="Times,serif" font-size="14.00">Knows</text>
</g>
<!-- emergencyContact&#45;&#45;patient_ibfk_2 -->
<g id="edge12" class="edge">
<title>emergencyContact&#45;&#45;patient_ibfk_2</title>
<path fill="none" stroke="black" d="M603.41,-722.47C662.7,-755.13 746.39,-801.24 785.06,-822.54"/>
</g>
<!-- emergencyContact.emergencyId -->
<g id="node32" class="node">
<title>emergencyContact.emergencyId</title>
<ellipse fill="#efe6ff" stroke="#ab82ff" cx="593.04" cy="-476.53" rx="71.49" ry="18"/>
<text text-anchor="middle" x="593.04" y="-472.83" font-family="Times,serif" font-size="14.00">emergencyId</text>
</g>
<!-- emergencyContact&#45;&#45;emergencyContact.emergencyId -->
<g id="edge31" class="edge">
<title>emergencyContact&#45;&#45;emergencyContact.emergencyId</title>
<path fill="none" stroke="black" d="M547.25,-650.23C559.17,-605.02 579.14,-529.25 588.25,-494.7"/>
</g>
<!-- emergencyContact.contactName -->
<g id="node33" class="node">
<title>emergencyContact.contactName</title>
<ellipse fill="#efe6ff" stroke="#ab82ff" cx="401.25" cy="-426.03" rx="72.29" ry="18"/>
<text text-anchor="middle" x="401.25" y="-422.33" font-family="Times,serif" font-size="14.00">contactName</text>
</g>
<!-- emergencyContact&#45;&#45;emergencyContact.contactName -->
<g id="edge32" class="edge">
<title>emergencyContact&#45;&#45;emergencyContact.contactName</title>
<path fill="none" stroke="black" d="M518.77,-650.1C489.1,-593.54 432.84,-486.26 410.62,-443.89"/>
</g>
<!-- emergencyContact.workNo -->
<g id="node34" class="node">
<title>emergencyContact.workNo</title>
<ellipse fill="#efe6ff" stroke="#ab82ff" cx="239.68" cy="-776.41" rx="46.59" ry="18"/>
<text text-anchor="middle" x="239.68" y="-772.71" font-family="Times,serif" font-size="14.00">workNo</text>
</g>
<!-- emergencyContact&#45;&#45;emergencyContact.workNo -->
<g id="edge33" class="edge">
<title>emergencyContact&#45;&#45;emergencyContact.workNo</title>
<path fill="none" stroke="black" d="M418.66,-722.3C367.9,-737.64 312.32,-754.45 276.77,-765.2"/>
</g>
<!-- emergencyContact.homeNo -->
<g id="node35" class="node">
<title>emergencyContact.homeNo</title>
<ellipse fill="#efe6ff" stroke="#ab82ff" cx="360.95" cy="-766.23" rx="49.29" ry="18"/>
<text text-anchor="middle" x="360.95" y="-762.53" font-family="Times,serif" font-size="14.00">homeNo</text>
</g>
<!-- emergencyContact&#45;&#45;emergencyContact.homeNo -->
<g id="edge34" class="edge">
<title>emergencyContact&#45;&#45;emergencyContact.homeNo</title>
<path fill="none" stroke="black" d="M457.88,-722.4C434.64,-732.91 410.6,-743.78 392.28,-752.06"/>
</g>
<!-- emergencyContact.mobileNo -->
<g id="node36" class="node">
<title>emergencyContact.mobileNo</title>
<ellipse fill="#efe6ff" stroke="#ab82ff" cx="518.38" cy="-382.03" rx="55.49" ry="18"/>
<text text-anchor="middle" x="518.38" y="-378.33" font-family="Times,serif" font-size="14.00">mobileNo</text>
</g>
<!-- emergencyContact&#45;&#45;emergencyContact.mobileNo -->
<g id="edge35" class="edge">
<title>emergencyContact&#45;&#45;emergencyContact.mobileNo</title>
<path fill="none" stroke="black" d="M533.91,-649.96C529.67,-608.17 523.03,-537.47 519.94,-476.51 518.6,-449.97 518.33,-419.18 518.31,-400.16"/>
</g>
<!-- emergencyContact.streetNo -->
<g id="node37" class="node">
<title>emergencyContact.streetNo</title>
<ellipse fill="#efe6ff" stroke="#ab82ff" cx="257.91" cy="-620.45" rx="51.99" ry="18"/>
<text text-anchor="middle" x="257.91" y="-616.75" font-family="Times,serif" font-size="14.00">streetNo</text>
</g>
<!-- emergencyContact&#45;&#45;emergencyContact.streetNo -->
<g id="edge36" class="edge">
<title>emergencyContact&#45;&#45;emergencyContact.streetNo</title>
<path fill="none" stroke="black" d="M414.6,-657.31C373.98,-647.76 331.45,-637.75 300.96,-630.58"/>
</g>
<!-- emergencyContact.streetName -->
<g id="node38" class="node">
<title>emergencyContact.streetName</title>
<ellipse fill="#efe6ff" stroke="#ab82ff" cx="366.23" cy="-895.04" rx="65.79" ry="18"/>
<text text-anchor="middle" x="366.23" y="-891.34" font-family="Times,serif" font-size="14.00">streetName</text>
</g>
<!-- emergencyContact&#45;&#45;emergencyContact.streetName -->
<g id="edge37" class="edge">
<title>emergencyContact&#45;&#45;emergencyContact.streetName</title>
<path fill="none" stroke="black" d="M507.87,-722.65C470.73,-767.86 408.82,-843.22 380.8,-877.32"/>
</g>
<!-- emergencyContact.postCode -->
<g id="node39" class="node">
<title>emergencyContact.postCode</title>
<ellipse fill="#efe6ff" stroke="#ab82ff" cx="320.78" cy="-513.12" rx="53.89" ry="18"/>
<text text-anchor="middle" x="320.78" y="-509.42" font-family="Times,serif" font-size="14.00">postCode</text>
</g>
<!-- emergencyContact&#45;&#45;emergencyContact.postCode -->
<g id="edge38" class="edge">
<title>emergencyContact&#45;&#45;emergencyContact.postCode</title>
<path fill="none" stroke="black" d="M492.53,-650.2C446.2,-613.23 376.22,-557.37 341.64,-529.77"/>
</g>
<!-- jab -->
<g id="node4" class="node">
<title>jab</title>
<polygon fill="#ffe6cc" stroke="orange" points="1793.76,-1112.03 1685.76,-1112.03 1685.76,-1040.03 1793.76,-1040.03 1793.76,-1112.03"/>
<text text-anchor="middle" x="1739.76" y="-1069.83" font-family="Times,serif" font-size="24.00">jab</text>
</g>
<!-- jab_ibfk_1 -->
<g id="node11" class="node">
<title>jab_ibfk_1</title>
<polygon fill="#e4fccc" stroke="#76ee00" points="1431,-1049.14 1372.35,-1031.14 1431,-1013.14 1489.66,-1031.14 1431,-1049.14"/>
<text text-anchor="middle" x="1431" y="-1027.44" font-family="Times,serif" font-size="14.00">Knows</text>
</g>
<!-- jab&#45;&#45;jab_ibfk_1 -->
<g id="edge3" class="edge">
<title>jab&#45;&#45;jab_ibfk_1</title>
<path fill="none" stroke="black" d="M1685.62,-1068.16C1624.23,-1059.23 1525.56,-1044.89 1470.83,-1036.93"/>
</g>
<!-- jab_ibfk_2 -->
<g id="node12" class="node">
<title>jab_ibfk_2</title>
<polygon fill="#e4fccc" stroke="#76ee00" points="1979.06,-851.46 1920.41,-833.46 1979.06,-815.46 2037.71,-833.46 1979.06,-851.46"/>
<text text-anchor="middle" x="1979.06" y="-829.76" font-family="Times,serif" font-size="14.00">Knows</text>
</g>
<!-- jab&#45;&#45;jab_ibfk_2 -->
<g id="edge5" class="edge">
<title>jab&#45;&#45;jab_ibfk_2</title>
<path fill="none" stroke="black" d="M1790.47,-1040.03C1824.08,-1014.67 1867.89,-978.65 1900.77,-941.02 1927.83,-910.06 1955.11,-870.16 1969.22,-848.71"/>
</g>
<!-- jab&#45;&#45;jab_ibfk_3 -->
<g id="edge7" class="edge">
<title>jab&#45;&#45;jab_ibfk_3</title>
<path fill="none" stroke="black" d="M1788.43,-1112.23C1822.28,-1139.46 1866.45,-1179.35 1895.93,-1222.44 1922.47,-1261.22 1939.23,-1314.76 1946.56,-1341.8"/>
</g>
<!-- jab.medicareNo -->
<g id="node40" class="node">
<title>jab.medicareNo</title>
<ellipse fill="#efe6ff" stroke="#ab82ff" cx="1747.88" cy="-866.85" rx="66.89" ry="18"/>
<text text-anchor="middle" x="1747.88" y="-863.15" font-family="Times,serif" font-size="14.00">medicareNo</text>
</g>
<!-- jab&#45;&#45;jab.medicareNo -->
<g id="edge39" class="edge">
<title>jab&#45;&#45;jab.medicareNo</title>
<path fill="none" stroke="black" d="M1741.17,-1039.6C1742.93,-994.41 1745.85,-919.17 1747.18,-884.88"/>
</g>
<!-- jab.positionNo -->
<g id="node41" class="node">
<title>jab.positionNo</title>
<ellipse fill="#efe6ff" stroke="#ab82ff" cx="1833.24" cy="-1222.29" rx="61.19" ry="18"/>
<text text-anchor="middle" x="1833.24" y="-1218.59" font-family="Times,serif" font-size="14.00">positionNo</text>
</g>
<!-- jab&#45;&#45;jab.positionNo -->
<g id="edge40" class="edge">
<title>jab&#45;&#45;jab.positionNo</title>
<path fill="none" stroke="black" d="M1762.87,-1112.18C1781.57,-1141.45 1807.14,-1181.44 1821.75,-1204.3"/>
</g>
<!-- jab.vaccineName -->
<g id="node42" class="node">
<title>jab.vaccineName</title>
<ellipse fill="#efe6ff" stroke="#ab82ff" cx="1692.12" cy="-1328.51" rx="72.59" ry="18"/>
<text text-anchor="middle" x="1692.12" y="-1324.81" font-family="Times,serif" font-size="14.00">vaccineName</text>
</g>
<!-- jab&#45;&#45;jab.vaccineName -->
<g id="edge41" class="edge">
<title>jab&#45;&#45;jab.vaccineName</title>
<path fill="none" stroke="black" d="M1740.83,-1112.32C1740.99,-1142.02 1739.57,-1184.95 1731.94,-1221.63 1725.2,-1254.01 1710.31,-1289.62 1700.77,-1310.48"/>
</g>
<!-- jab.batchNo -->
<g id="node43" class="node">
<title>jab.batchNo</title>
<ellipse fill="#efe6ff" stroke="#ab82ff" cx="1680.3" cy="-1221.49" rx="50.09" ry="18"/>
<text text-anchor="middle" x="1680.3" y="-1217.79" font-family="Times,serif" font-size="14.00">batchNo</text>
</g>
<!-- jab&#45;&#45;jab.batchNo -->
<g id="edge42" class="edge">
<title>jab&#45;&#45;jab.batchNo</title>
<path fill="none" stroke="black" d="M1724.91,-1112.36C1713.07,-1141.31 1697,-1180.62 1687.73,-1203.3"/>
</g>
<!-- jab.MPN -->
<g id="node44" class="node">
<title>jab.MPN</title>
<ellipse fill="#efe6ff" stroke="#ab82ff" cx="1938.04" cy="-1073.47" rx="34.39" ry="18"/>
<text text-anchor="middle" x="1938.04" y="-1069.77" font-family="Times,serif" font-size="14.00">MPN</text>
</g>
<!-- jab&#45;&#45;jab.MPN -->
<g id="edge43" class="edge">
<title>jab&#45;&#45;jab.MPN</title>
<path fill="none" stroke="black" d="M1793.94,-1075.33C1828.91,-1074.88 1873.35,-1074.3 1903.57,-1073.91"/>
</g>
<!-- jab.jabDate -->
<g id="node45" class="node">
<title>jab.jabDate</title>
<ellipse fill="#efe6ff" stroke="#ab82ff" cx="1852.38" cy="-940.87" rx="46.59" ry="18"/>
<text text-anchor="middle" x="1852.38" y="-937.17" font-family="Times,serif" font-size="14.00">jabDate</text>
</g>
<!-- jab&#45;&#45;jab.jabDate -->
<g id="edge44" class="edge">
<title>jab&#45;&#45;jab.jabDate</title>
<path fill="none" stroke="black" d="M1769.94,-1039.81C1791.96,-1013.38 1820.84,-978.73 1837.92,-958.23"/>
</g>
<!-- medicareCard -->
<g id="node5" class="node">
<title>medicareCard</title>
<polygon fill="#ffe6cc" stroke="orange" points="1204.41,-370.04 1016.41,-370.04 1016.41,-298.04 1204.41,-298.04 1204.41,-370.04"/>
<text text-anchor="middle" x="1110.41" y="-327.84" font-family="Times,serif" font-size="24.00">medicareCard</text>
</g>
<!-- patient_ibfk_1 -->
<g id="node14" class="node">
<title>patient_ibfk_1</title>
<polygon fill="#e4fccc" stroke="#76ee00" points="1116.93,-660.49 1058.28,-642.49 1116.93,-624.49 1175.59,-642.49 1116.93,-660.49"/>
<text text-anchor="middle" x="1116.93" y="-638.79" font-family="Times,serif" font-size="14.00">Knows</text>
</g>
<!-- medicareCard&#45;&#45;patient_ibfk_1 -->
<g id="edge10" class="edge">
<title>medicareCard&#45;&#45;patient_ibfk_1</title>
<path fill="none" stroke="black" d="M1111.18,-370.33C1112.58,-436.58 1115.5,-574.84 1116.55,-624.37"/>
</g>
<!-- medicareCard.medicareNo -->
<g id="node46" class="node">
<title>medicareCard.medicareNo</title>
<ellipse fill="#efe6ff" stroke="#ab82ff" cx="878.63" cy="-135.77" rx="66.89" ry="18"/>
<text text-anchor="middle" x="878.63" y="-132.07" font-family="Times,serif" font-size="14.00">medicareNo</text>
</g>
<!-- medicareCard&#45;&#45;medicareCard.medicareNo -->
<g id="edge45" class="edge">
<title>medicareCard&#45;&#45;medicareCard.medicareNo</title>
<path fill="none" stroke="black" d="M1068.17,-297.91C1018.03,-255.01 936.49,-185.26 898.85,-153.06"/>
</g>
<!-- medicareCard.email -->
<g id="node47" class="node">
<title>medicareCard.email</title>
<ellipse fill="#efe6ff" stroke="#ab82ff" cx="1111.79" cy="-56.06" rx="36.29" ry="18"/>
<text text-anchor="middle" x="1111.79" y="-52.36" font-family="Times,serif" font-size="14.00">email</text>
</g>
<!-- medicareCard&#45;&#45;medicareCard.email -->
<g id="edge46" class="edge">
<title>medicareCard&#45;&#45;medicareCard.email</title>
<path fill="none" stroke="black" d="M1110.59,-297.99C1110.89,-237.9 1111.47,-119.44 1111.7,-74.2"/>
</g>
<!-- medicareCard.validTo -->
<g id="node48" class="node">
<title>medicareCard.validTo</title>
<ellipse fill="#efe6ff" stroke="#ab82ff" cx="991.99" cy="-78.42" rx="44.39" ry="18"/>
<text text-anchor="middle" x="991.99" y="-74.72" font-family="Times,serif" font-size="14.00">validTo</text>
</g>
<!-- medicareCard&#45;&#45;medicareCard.validTo -->
<g id="edge47" class="edge">
<title>medicareCard&#45;&#45;medicareCard.validTo</title>
<path fill="none" stroke="black" d="M1093.7,-297.96C1067.94,-242.36 1019.5,-137.82 1000.22,-96.19"/>
</g>
<!-- medicareCard.phone -->
<g id="node49" class="node">
<title>medicareCard.phone</title>
<ellipse fill="#efe6ff" stroke="#ab82ff" cx="1339.78" cy="-155.19" rx="38.99" ry="18"/>
<text text-anchor="middle" x="1339.78" y="-151.49" font-family="Times,serif" font-size="14.00">phone</text>
</g>
<!-- medicareCard&#45;&#45;medicareCard.phone -->
<g id="edge48" class="edge">
<title>medicareCard&#45;&#45;medicareCard.phone</title>
<path fill="none" stroke="black" d="M1156.83,-297.85C1206.7,-258.96 1283.66,-198.95 1319.77,-170.79"/>
</g>
<!-- medicareCard.streetNo -->
<g id="node50" class="node">
<title>medicareCard.streetNo</title>
<ellipse fill="#efe6ff" stroke="#ab82ff" cx="1231.89" cy="-83" rx="51.99" ry="18"/>
<text text-anchor="middle" x="1231.89" y="-79.3" font-family="Times,serif" font-size="14.00">streetNo</text>
</g>
<!-- medicareCard&#45;&#45;medicareCard.streetNo -->
<g id="edge49" class="edge">
<title>medicareCard&#45;&#45;medicareCard.streetNo</title>
<path fill="none" stroke="black" d="M1127.95,-297.81C1154.36,-243.22 1203.37,-141.93 1223.21,-100.93"/>
</g>
<!-- medicareCard.streetName -->
<g id="node51" class="node">
<title>medicareCard.streetName</title>
<ellipse fill="#efe6ff" stroke="#ab82ff" cx="887.65" cy="-258.04" rx="65.79" ry="18"/>
<text text-anchor="middle" x="887.65" y="-254.34" font-family="Times,serif" font-size="14.00">streetName</text>
</g>
<!-- medicareCard&#45;&#45;medicareCard.streetName -->
<g id="edge50" class="edge">
<title>medicareCard&#45;&#45;medicareCard.streetName</title>
<path fill="none" stroke="black" d="M1016.27,-301.92C985.75,-291.51 953.46,-280.49 928.87,-272.1"/>
</g>
<!-- medicareCard.postcode -->
<g id="node52" class="node">
<title>medicareCard.postcode</title>
<ellipse fill="#efe6ff" stroke="#ab82ff" cx="1326.03" cy="-273.06" rx="51.99" ry="18"/>
<text text-anchor="middle" x="1326.03" y="-269.36" font-family="Times,serif" font-size="14.00">postcode</text>
</g>
<!-- medicareCard&#45;&#45;medicareCard.postcode -->
<g id="edge51" class="edge">
<title>medicareCard&#45;&#45;medicareCard.postcode</title>
<path fill="none" stroke="black" d="M1204.67,-307.38C1233.11,-299.34 1262.84,-290.93 1285.75,-284.45"/>
</g>
<!-- patient -->
<g id="node6" class="node">
<title>patient</title>
<polygon fill="#ffe6cc" stroke="orange" points="1148.46,-1006.47 1040.46,-1006.47 1040.46,-934.47 1148.46,-934.47 1148.46,-1006.47"/>
<text text-anchor="middle" x="1094.46" y="-964.27" font-family="Times,serif" font-size="24.00">patient</text>
</g>
<!-- patient&#45;&#45;allergy_ibfk_1 -->
<g id="edge2" class="edge">
<title>patient&#45;&#45;allergy_ibfk_1</title>
<path fill="none" stroke="black" d="M1097.88,-1006.69C1099.2,-1036.54 1097.6,-1079.29 1082.36,-1113.01 1051.8,-1180.64 980.41,-1237.22 946.63,-1261.29"/>
</g>
<!-- patient&#45;&#45;jab_ibfk_1 -->
<g id="edge4" class="edge">
<title>patient&#45;&#45;jab_ibfk_1</title>
<path fill="none" stroke="black" d="M1148.54,-980.22C1217.28,-992.61 1334.18,-1013.68 1393.74,-1024.42"/>
</g>
<!-- patient&#45;&#45;patient_ibfk_1 -->
<g id="edge9" class="edge">
<title>patient&#45;&#45;patient_ibfk_1</title>
<path fill="none" stroke="black" d="M1096.93,-934.44C1101.73,-864.38 1112.16,-712.15 1115.72,-660.24"/>
</g>
<!-- patient&#45;&#45;patient_ibfk_2 -->
<g id="edge11" class="edge">
<title>patient&#45;&#45;patient_ibfk_2</title>
<path fill="none" stroke="black" d="M1040.24,-944.84C976.95,-914.92 875.17,-866.79 829.58,-845.24"/>
</g>
<!-- patient.positionNo -->
<g id="node53" class="node">
<title>patient.positionNo</title>
<ellipse fill="#efe6ff" stroke="#ab82ff" cx="1141.25" cy="-1182.35" rx="61.19" ry="18"/>
<text text-anchor="middle" x="1141.25" y="-1178.65" font-family="Times,serif" font-size="14.00">positionNo</text>
</g>
<!-- patient&#45;&#45;patient.positionNo -->
<g id="edge52" class="edge">
<title>patient&#45;&#45;patient.positionNo</title>
<path fill="none" stroke="black" d="M1102.51,-1006.9C1112.62,-1052.69 1129.58,-1129.5 1137.26,-1164.27"/>
</g>
<!-- patient.medicareNo -->
<g id="node54" class="node">
<title>patient.medicareNo</title>
<ellipse fill="#efe6ff" stroke="#ab82ff" cx="1013.82" cy="-1112.82" rx="66.89" ry="18"/>
<text text-anchor="middle" x="1013.82" y="-1109.12" font-family="Times,serif" font-size="14.00">medicareNo</text>
</g>
<!-- patient&#45;&#45;patient.medicareNo -->
<g id="edge53" class="edge">
<title>patient&#45;&#45;patient.medicareNo</title>
<path fill="none" stroke="black" d="M1073.91,-1006.76C1057.95,-1034.93 1036.5,-1072.79 1024.02,-1094.82"/>
</g>
<!-- patient.fName -->
<g id="node55" class="node">
<title>patient.fName</title>
<ellipse fill="#efe6ff" stroke="#ab82ff" cx="1207.81" cy="-1094.81" rx="41.69" ry="18"/>
<text text-anchor="middle" x="1207.81" y="-1091.11" font-family="Times,serif" font-size="14.00">fName</text>
</g>
<!-- patient&#45;&#45;patient.fName -->
<g id="edge54" class="edge">
<title>patient&#45;&#45;patient.fName</title>
<path fill="none" stroke="black" d="M1127.55,-1006.77C1148.98,-1030.28 1175.89,-1059.8 1192.46,-1077.98"/>
</g>
<!-- patient.lName -->
<g id="node56" class="node">
<title>patient.lName</title>
<ellipse fill="#efe6ff" stroke="#ab82ff" cx="1167.88" cy="-808.46" rx="40.89" ry="18"/>
<text text-anchor="middle" x="1167.88" y="-804.76" font-family="Times,serif" font-size="14.00">lName</text>
</g>
<!-- patient&#45;&#45;patient.lName -->
<g id="edge55" class="edge">
<title>patient&#45;&#45;patient.lName</title>
<path fill="none" stroke="black" d="M1110.94,-934.11C1126.16,-900.53 1148.13,-852.05 1159.83,-826.23"/>
</g>
<!-- patient.gender -->
<g id="node57" class="node">
<title>patient.gender</title>
<ellipse fill="#efe6ff" stroke="#ab82ff" cx="1002.09" cy="-845.18" rx="43.59" ry="18"/>
<text text-anchor="middle" x="1002.09" y="-841.48" font-family="Times,serif" font-size="14.00">gender</text>
</g>
<!-- patient&#45;&#45;patient.gender -->
<g id="edge56" class="edge">
<title>patient&#45;&#45;patient.gender</title>
<path fill="none" stroke="black" d="M1067.75,-934.23C1050.38,-910.67 1028.51,-881.01 1014.91,-862.57"/>
</g>
<!-- patient.birthdate -->
<g id="node58" class="node">
<title>patient.birthdate</title>
<ellipse fill="#efe6ff" stroke="#ab82ff" cx="920.67" cy="-1008.83" rx="53.89" ry="18"/>
<text text-anchor="middle" x="920.67" y="-1005.13" font-family="Times,serif" font-size="14.00">birthdate</text>
</g>
<!-- patient&#45;&#45;patient.birthdate -->
<g id="edge57" class="edge">
<title>patient&#45;&#45;patient.birthdate</title>
<path fill="none" stroke="black" d="M1040.43,-982.4C1016.51,-987.68 988.71,-993.81 965.91,-998.85"/>
</g>
<!-- patient.emergencyId -->
<g id="node59" class="node">
<title>patient.emergencyId</title>
<ellipse fill="#efe6ff" stroke="#ab82ff" cx="1242.35" cy="-894.83" rx="71.49" ry="18"/>
<text text-anchor="middle" x="1242.35" y="-891.13" font-family="Times,serif" font-size="14.00">emergencyId</text>
</g>
<!-- patient&#45;&#45;patient.emergencyId -->
<g id="edge58" class="edge">
<title>patient&#45;&#45;patient.emergencyId</title>
<path fill="none" stroke="black" d="M1148.69,-942.74C1169.47,-932.11 1192.48,-920.34 1210.5,-911.12"/>
</g>
<!-- reaction -->
<g id="node7" class="node">
<title>reaction</title>
<polygon fill="#ffe6cc" stroke="orange" points="437.64,-2030.99 320.64,-2030.99 320.64,-1958.99 437.64,-1958.99 437.64,-2030.99"/>
<text text-anchor="middle" x="379.14" y="-1988.79" font-family="Times,serif" font-size="24.00">reaction</text>
</g>
<!-- reaction&#45;&#45;reaction_ibfk_1 -->
<g id="edge13" class="edge">
<title>reaction&#45;&#45;reaction_ibfk_1</title>
<path fill="none" stroke="black" d="M408.06,-1958.89C449.55,-1907.12 524.09,-1814.08 552.66,-1778.42"/>
</g>
<!-- reaction.reactionId -->
<g id="node60" class="node">
<title>reaction.reactionId</title>
<ellipse fill="#efe6ff" stroke="#ab82ff" cx="126.93" cy="-2094.85" rx="57.69" ry="18"/>
<text text-anchor="middle" x="126.93" y="-2091.15" font-family="Times,serif" font-size="14.00">reactionId</text>
</g>
<!-- reaction&#45;&#45;reaction.reactionId -->
<g id="edge59" class="edge">
<title>reaction&#45;&#45;reaction.reactionId</title>
<path fill="none" stroke="black" d="M320.33,-2018.28C271.56,-2037.58 203.82,-2064.41 162.8,-2080.64"/>
</g>
<!-- reaction.reactionDate -->
<g id="node61" class="node">
<title>reaction.reactionDate</title>
<ellipse fill="#efe6ff" stroke="#ab82ff" cx="210.96" cy="-2193.05" rx="70.69" ry="18"/>
<text text-anchor="middle" x="210.96" y="-2189.35" font-family="Times,serif" font-size="14.00">reactionDate</text>
</g>
<!-- reaction&#45;&#45;reaction.reactionDate -->
<g id="edge60" class="edge">
<title>reaction&#45;&#45;reaction.reactionDate</title>
<path fill="none" stroke="black" d="M348.3,-2031.32C312.07,-2073.98 253.45,-2143.01 226.02,-2175.31"/>
</g>
<!-- reaction.gravity -->
<g id="node62" class="node">
<title>reaction.gravity</title>
<ellipse fill="#efe6ff" stroke="#ab82ff" cx="325.26" cy="-2280.05" rx="44.39" ry="18"/>
<text text-anchor="middle" x="325.26" y="-2276.35" font-family="Times,serif" font-size="14.00">gravity</text>
</g>
<!-- reaction&#45;&#45;reaction.gravity -->
<g id="edge61" class="edge">
<title>reaction&#45;&#45;reaction.gravity</title>
<path fill="none" stroke="black" d="M372.32,-2031.09C360.68,-2092.67 337.41,-2215.81 328.68,-2261.99"/>
</g>
<!-- reaction.dosageGiven -->
<g id="node63" class="node">
<title>reaction.dosageGiven</title>
<ellipse fill="#efe6ff" stroke="#ab82ff" cx="103.89" cy="-1830.92" rx="70.39" ry="18"/>
<text text-anchor="middle" x="103.89" y="-1827.22" font-family="Times,serif" font-size="14.00">dosageGiven</text>
</g>
<!-- reaction&#45;&#45;reaction.dosageGiven -->
<g id="edge62" class="edge">
<title>reaction&#45;&#45;reaction.dosageGiven</title>
<path fill="none" stroke="black" d="M320.27,-1974.08C278.81,-1957.93 223.03,-1933.27 178.76,-1903.08 155.79,-1887.42 133.36,-1864.49 119.14,-1848.7"/>
</g>
<!-- reaction.medication -->
<g id="node64" class="node">
<title>reaction.medication</title>
<ellipse fill="#efe6ff" stroke="#ab82ff" cx="527.39" cy="-2287.24" rx="61.99" ry="18"/>
<text text-anchor="middle" x="527.39" y="-2283.54" font-family="Times,serif" font-size="14.00">medication</text>
</g>
<!-- reaction&#45;&#45;reaction.medication -->
<g id="edge63" class="edge">
<title>reaction&#45;&#45;reaction.medication</title>
<path fill="none" stroke="black" d="M404.17,-2031.22C431.01,-2071.35 473.5,-2138.67 501.11,-2201.3 511.06,-2223.86 518.74,-2251.31 523.16,-2269.02"/>
</g>
<!-- reaction.notes -->
<g id="node65" class="node">
<title>reaction.notes</title>
<ellipse fill="#efe6ff" stroke="#ab82ff" cx="205.69" cy="-1889.26" rx="36.29" ry="18"/>
<text text-anchor="middle" x="205.69" y="-1885.56" font-family="Times,serif" font-size="14.00">notes</text>
</g>
<!-- reaction&#45;&#45;reaction.notes -->
<g id="edge64" class="edge">
<title>reaction&#45;&#45;reaction.notes</title>
<path fill="none" stroke="black" d="M320.42,-1959.19C288.97,-1940.02 252.02,-1917.5 228.72,-1903.3"/>
</g>
<!-- reaction.allergyName -->
<g id="node66" class="node">
<title>reaction.allergyName</title>
<ellipse fill="#efe6ff" stroke="#ab82ff" cx="70.19" cy="-1973.28" rx="70.39" ry="18"/>
<text text-anchor="middle" x="70.19" y="-1969.58" font-family="Times,serif" font-size="14.00">allergyName</text>
</g>
<!-- reaction&#45;&#45;reaction.allergyName -->
<g id="edge65" class="edge">
<title>reaction&#45;&#45;reaction.allergyName</title>
<path fill="none" stroke="black" d="M320.31,-1990.86C268.31,-1987.2 192.48,-1981.87 137.96,-1978.04"/>
</g>
<!-- reaction.medicareNo -->
<g id="node67" class="node">
<title>reaction.medicareNo</title>
<ellipse fill="#efe6ff" stroke="#ab82ff" cx="432.57" cy="-2201.23" rx="66.89" ry="18"/>
<text text-anchor="middle" x="432.57" y="-2197.53" font-family="Times,serif" font-size="14.00">medicareNo</text>
</g>
<!-- reaction&#45;&#45;reaction.medicareNo -->
<g id="edge66" class="edge">
<title>reaction&#45;&#45;reaction.medicareNo</title>
<path fill="none" stroke="black" d="M388.57,-2031.39C400.07,-2075.79 419.07,-2149.13 427.85,-2183.02"/>
</g>
<!-- reaction.positionNo -->
<g id="node68" class="node">
<title>reaction.positionNo</title>
<ellipse fill="#efe6ff" stroke="#ab82ff" cx="588.59" cy="-2170.19" rx="61.19" ry="18"/>
<text text-anchor="middle" x="588.59" y="-2166.49" font-family="Times,serif" font-size="14.00">positionNo</text>
</g>
<!-- reaction&#45;&#45;reaction.positionNo -->
<g id="edge67" class="edge">
<title>reaction&#45;&#45;reaction.positionNo</title>
<path fill="none" stroke="black" d="M422.29,-2031.08C466.83,-2068.34 534.44,-2124.89 568.08,-2153.03"/>
</g>
<!-- vaccine -->
<g id="node8" class="node">
<title>vaccine</title>
<polygon fill="#ffe6cc" stroke="orange" points="2677.41,-313.22 2568.41,-313.22 2568.41,-241.22 2677.41,-241.22 2677.41,-313.22"/>
<text text-anchor="middle" x="2622.91" y="-271.02" font-family="Times,serif" font-size="24.00">vaccine</text>
</g>
<!-- vaccineBatch_ibfk_1 -->
<g id="node17" class="node">
<title>vaccineBatch_ibfk_1</title>
<polygon fill="#e4fccc" stroke="#76ee00" points="2424.42,-475.67 2365.77,-457.67 2424.42,-439.67 2483.08,-457.67 2424.42,-475.67"/>
<text text-anchor="middle" x="2424.42" y="-453.97" font-family="Times,serif" font-size="14.00">Knows</text>
</g>
<!-- vaccine&#45;&#45;vaccineBatch_ibfk_1 -->
<g id="edge16" class="edge">
<title>vaccine&#45;&#45;vaccineBatch_ibfk_1</title>
<path fill="none" stroke="black" d="M2583.22,-313.3C2539.1,-353.41 2470.06,-416.18 2439.66,-443.82"/>
</g>
<!-- vaccine.vaccineType -->
<g id="node69" class="node">
<title>vaccine.vaccineType</title>
<ellipse fill="#efe6ff" stroke="#ab82ff" cx="2887.37" cy="-279.52" rx="67.69" ry="18"/>
<text text-anchor="middle" x="2887.37" y="-275.82" font-family="Times,serif" font-size="14.00">vaccineType</text>
</g>
<!-- vaccine&#45;&#45;vaccine.vaccineType -->
<g id="edge68" class="edge">
<title>vaccine&#45;&#45;vaccine.vaccineType</title>
<path fill="none" stroke="black" d="M2677.71,-277.7C2718.86,-278.05 2775.46,-278.55 2819.48,-278.93"/>
</g>
<!-- vaccine.vaccineName -->
<g id="node70" class="node">
<title>vaccine.vaccineName</title>
<ellipse fill="#efe6ff" stroke="#ab82ff" cx="2676.79" cy="-18" rx="72.59" ry="18"/>
<text text-anchor="middle" x="2676.79" y="-14.3" font-family="Times,serif" font-size="14.00">vaccineName</text>
</g>
<!-- vaccine&#45;&#45;vaccine.vaccineName -->
<g id="edge69" class="edge">
<title>vaccine&#45;&#45;vaccine.vaccineName</title>
<path fill="none" stroke="black" d="M2630.4,-241.18C2642.08,-184.97 2664.21,-78.51 2673.02,-36.1"/>
</g>
<!-- vaccineBatch -->
<g id="node9" class="node">
<title>vaccineBatch</title>
<polygon fill="#ffe6cc" stroke="orange" points="2290.88,-684.83 2110.88,-684.83 2110.88,-612.83 2290.88,-612.83 2290.88,-684.83"/>
<text text-anchor="middle" x="2200.88" y="-642.63" font-family="Times,serif" font-size="24.00">vaccineBatch</text>
</g>
<!-- vaccineBatch&#45;&#45;jab_ibfk_2 -->
<g id="edge6" class="edge">
<title>vaccineBatch&#45;&#45;jab_ibfk_2</title>
<path fill="none" stroke="black" d="M2157.58,-684.87C2107.78,-726.32 2028.57,-792.25 1994.96,-820.22"/>
</g>
<!-- vaccineBatch&#45;&#45;vaccineBatch_ibfk_1 -->
<g id="edge15" class="edge">
<title>vaccineBatch&#45;&#45;vaccineBatch_ibfk_1</title>
<path fill="none" stroke="black" d="M2243.19,-612.65C2293.44,-569.68 2374.73,-500.17 2408.71,-471.11"/>
</g>
<!-- vaccineBatch.batchNo -->
<g id="node71" class="node">
<title>vaccineBatch.batchNo</title>
<ellipse fill="#efe6ff" stroke="#ab82ff" cx="2440.79" cy="-666.8" rx="50.09" ry="18"/>
<text text-anchor="middle" x="2440.79" y="-663.1" font-family="Times,serif" font-size="14.00">batchNo</text>
</g>
<!-- vaccineBatch&#45;&#45;vaccineBatch.batchNo -->
<g id="edge70" class="edge">
<title>vaccineBatch&#45;&#45;vaccineBatch.batchNo</title>
<path fill="none" stroke="black" d="M2290.9,-655.57C2325.07,-658.13 2362.7,-660.95 2391.71,-663.13"/>
</g>
<!-- vaccineBatch.manufactureDate -->
<g id="node72" class="node">
<title>vaccineBatch.manufactureDate</title>
<ellipse fill="#efe6ff" stroke="#ab82ff" cx="2446.09" cy="-793.04" rx="91.78" ry="18"/>
<text text-anchor="middle" x="2446.09" y="-789.34" font-family="Times,serif" font-size="14.00">manufactureDate</text>
</g>
<!-- vaccineBatch&#45;&#45;vaccineBatch.manufactureDate -->
<g id="edge71" class="edge">
<title>vaccineBatch&#45;&#45;vaccineBatch.manufactureDate</title>
<path fill="none" stroke="black" d="M2262.12,-684.85C2311.49,-713.88 2378.74,-753.43 2416.75,-775.78"/>
</g>
<!-- vaccineBatch.expiry -->
<g id="node73" class="node">
<title>vaccineBatch.expiry</title>
<ellipse fill="#efe6ff" stroke="#ab82ff" cx="2238.36" cy="-421.56" rx="40.09" ry="18"/>
<text text-anchor="middle" x="2238.36" y="-417.86" font-family="Times,serif" font-size="14.00">expiry</text>
</g>
<!-- vaccineBatch&#45;&#45;vaccineBatch.expiry -->
<g id="edge72" class="edge">
<title>vaccineBatch&#45;&#45;vaccineBatch.expiry</title>
<path fill="none" stroke="black" d="M2206.82,-612.82C2214.93,-563.63 2229.17,-477.27 2235.35,-439.79"/>
</g>
<!-- vaccineBatch.vaccineName -->
<g id="node74" class="node">
<title>vaccineBatch.vaccineName</title>
<ellipse fill="#efe6ff" stroke="#ab82ff" cx="2121.7" cy="-377.21" rx="72.59" ry="18"/>
<text text-anchor="middle" x="2121.7" y="-373.51" font-family="Times,serif" font-size="14.00">vaccineName</text>
</g>
<!-- vaccineBatch&#45;&#45;vaccineBatch.vaccineName -->
<g id="edge73" class="edge">
<title>vaccineBatch&#45;&#45;vaccineBatch.vaccineName</title>
<path fill="none" stroke="black" d="M2190.36,-612.76C2173.24,-554.03 2139.95,-439.83 2127.01,-395.46"/>
</g>
</g>
</svg>
